# xmcd
#
# Track frame offsets: 
#        183
#        21675
#        52083
#        88183
#        104983
#        162033
#        210858
#        288605
#        307733
#
# Disc length: 4184 seconds
#
# Revision: 3
# Processed by: cddbd v1.5.2PL0 Copyright (c) Steve Scherf et al.
# Submitted via: ExactAudioCopy v0.95b3
#
DISCID=80105609
DTITLE=Albert Collins - Deep Freeze CD2 - Live at the El Mocambo 1973
DYEAR=2005
DGENRE=Blues
TTITLE0=Intro
TTITLE1=All About My Girl
TTITLE2=I've Got A Mind To Travel
TTITLE3=Things That I Used To Do
TTITLE4=Frosty
TTITLE5=Wah Heat
TTITLE6=Can't You See What You're Doing To Me.
TTITLE7=Cold Tremor
TTITLE8=Johnny B. Cool
EXTD=Toronto, 1973, with the Moe Peters Band
EXTT0=
EXTT1=
EXTT2=
EXTT3=
EXTT4=
EXTT5=
EXTT6=
EXTT7=
EXTT8=
PLAYORDER=
